<svg xmlns="http://www.w3.org/2000/svg" xmlns:xlink="http://www.w3.org/1999/xlink" version="1.1" width="1000" height="1000" viewBox="0 0 1000 1000" xml:space="preserve">
<desc>Created with Fabric.js 3.5.0</desc>
<defs>
</defs>
<rect x="0" y="0" width="100%" height="100%" fill="#ffffff"/>
<g transform="matrix(0.18 0 0 0.18 477.2611 479.8849)" id="402608">
<g style="" vector-effect="non-scaling-stroke">
		<g transform="matrix(8.323 0 0 8.3224 -1117.5467 0.0001)" id="body_1">
<path style="stroke: none; stroke-width: 1; stroke-dasharray: none; stroke-linecap: butt; stroke-dashoffset: 0; stroke-linejoin: miter; stroke-miterlimit: 4; is-custom-font: none; font-file-url: none; fill: rgb(238,123,17); fill-rule: nonzero; opacity: 1;" transform=" translate(-50.0075, -49.585)" d="M 93.45 81.03 L 78.48 66.05 C 76.89001 64.46001 74.700005 63.590004 72.43 63.600002 L 72.43 63.600002 L 62.9 54.070004 C 68.770004 45.530003 70.04 35.08 66.950005 25.790003 L 66.950005 25.790003 L 76.3 16.440002 L 76.18 18.840002 L 78.18 18.940002 L 78.48 13 L 72.740005 12.7 L 72.64001 14.7 L 75.090004 14.83 L 66.19 23.73 C 64.600006 19.86 62.230003 16.23 59.090004 13.089999 C 53 7 44.9 3.64 36.29 3.64 C 27.68 3.64 19.580002 6.99 13.5 13.08 C 0.9300003 25.65 0.9300003 46.1 13.5 58.67 C 19.78 64.95 28 68.17 36.28 68.159996 C 42.59 68.159996 48.93 66.27 54.48 62.459995 L 54.48 62.459995 L 64.02 71.99999 C 63.999996 74.27999 64.869995 76.45999 66.46999 78.05999 L 66.46999 78.05999 L 81.45 93.03999 C 83.049995 94.63999 85.189995 95.52999 87.46 95.52999 C 89.729996 95.52999 91.86 94.649994 93.47 93.03999 C 96.77 89.73 96.77 84.34 93.45 81.03 z M 82.85 91.63 L 67.88 76.65 C 66.56 75.33 65.899994 73.560005 66.02 71.66 C 66.119995 70.060005 66.78 68.57001 67.88 67.47 C 68.979996 66.37 70.46999 65.71 72.07 65.61 C 72.21 65.6 72.36 65.6 72.5 65.6 C 74.24 65.6 75.85 66.26 77.06 67.47 L 77.06 67.47 L 92.03999 82.45 C 94.56999 84.979996 94.56999 89.1 92.03999 91.64 C 90.80999 92.87 89.17999 93.54 87.45 93.54 C 85.71 93.53 84.08 92.85 82.85 91.63 z M 14.91 57.26 C 9.2 51.55 6.05 43.96 6.05 35.879997 C 6.05 27.799995 9.2 20.21 14.91 14.5 C 20.619999 8.79 28.21 5.6400003 36.29 5.6400003 C 44.370003 5.6400003 51.96 8.790001 57.67 14.5 C 60.829998 17.66 63.149998 21.34 64.64 25.27 L 64.64 25.27 L 40.93 48.98 L 23 31.06 L 11.89 42.17 L 13.3 43.579998 L 23 33.879997 L 40.93 51.809998 L 65.35 27.389997 C 67.92 36.1 66.47 45.769997 60.789997 53.609997 C 59.839996 54.909996 58.799995 56.139996 57.67 57.26 C 56.55 58.379997 55.32 59.43 54.019997 60.37 C 41.93 69.14 25.49 67.83 14.91 57.26 z M 56.13 61.29 C 56.370003 61.100002 56.61 60.89 56.84 60.7 C 57.02 60.55 57.21 60.4 57.39 60.24 C 57.97 59.730003 58.55 59.210003 59.09 58.670002 C 59.63 58.13 60.15 57.56 60.65 56.980003 C 60.81 56.800003 60.960003 56.610004 61.11 56.420002 C 61.31 56.18 61.510002 55.95 61.7 55.710003 L 61.7 55.710003 L 69.95 63.960003 C 69.909996 63.97 69.88 63.99 69.84 64 C 69.56 64.09 69.28999 64.19 69.03 64.3 C 69.01 64.310005 68.99 64.310005 68.979996 64.32 C 68.7 64.45 68.42 64.59 68.159996 64.74 C 68.09 64.78 68.02 64.829994 67.95 64.869995 C 67.75 64.99 67.56 65.119995 67.369995 65.259995 C 67.299995 65.31 67.229996 65.35999 67.159996 65.42 C 66.92 65.61 66.67999 65.81 66.46 66.03 C 66.24 66.25 66.04 66.479996 65.85 66.72 C 65.79 66.79 65.74 66.86 65.689995 66.93 C 65.549995 67.11 65.42 67.31 65.299995 67.5 C 65.24999 67.57 65.21 67.65 65.159996 67.72 C 65.009995 67.99 64.85999 68.26 64.74 68.54 C 64.729996 68.56 64.729996 68.58 64.72 68.590004 C 64.6 68.86 64.51 69.130005 64.42 69.41 C 64.409996 69.44 64.39 69.48 64.38 69.51 L 64.38 69.51 L 56.13 61.29 z" stroke-linecap="round"/>
</g>
		<g transform="matrix(19.9767 0 0 19.9752 499.9528 1.3591)" id="body_1">
<path style="stroke: none; stroke-width: 1; stroke-dasharray: none; stroke-linecap: butt; stroke-dashoffset: 0; stroke-linejoin: miter; stroke-miterlimit: 4; is-custom-font: none; font-file-url: none; fill: rgb(57,62,70); fill-rule: nonzero; opacity: 1;" transform=" translate(-52.1533, -15.3903)" d="M 9.6094 7.939 L 4.0821 7.939 L 4.0821 12.2359 L 8.9551 12.2359 L 8.9551 13.9742 L 4.0821 13.9742 L 4.0821 18.2418 L 9.6094 18.2418 L 9.6094 19.9996 L 2.0995998 19.9996 L 2.0995998 6.1905994 L 9.6094 6.1905994 L 9.6094 7.9385996 L 9.6094 7.939 z M 17.24608 10.1367 C 19.28708 10.1367 20.63478 11.318299 20.63478 13.4862995 L 20.63478 13.4862995 L 20.63478 20 L 18.74998 20 L 18.74998 13.9062 C 18.74998 12.314401 17.802711 11.699201 16.70898 11.699201 C 15.419881 11.699201 14.365181 12.480451 14.35548 14.287101 L 14.35548 14.287101 L 14.35548 20 L 12.48048 20 L 12.48048 10.332 L 14.35548 10.332 L 14.35548 11.523399 C 14.98048 10.644489 15.99608 10.1367 17.24608 10.1367 z M 30.751905 10.332 L 32.558506 10.332 L 32.558506 19.4629 C 32.558506 22.8516 30.732306 24.589901 27.783106 24.589901 C 25.302607 24.589901 23.779205 23.4864 23.027206 21.621101 L 23.027206 21.621101 L 24.589706 20.878912 C 25.146347 22.314411 26.152206 23.056612 27.714706 23.056612 C 29.687407 23.056612 30.683506 21.748013 30.683506 19.580011 L 30.683506 19.580011 L 30.683506 17.89051 C 30.097567 18.96471 28.808506 19.716711 27.363205 19.716711 C 24.951105 19.716711 22.949104 17.74401 22.949104 14.912011 C 22.949104 12.080011 24.970604 10.136611 27.382704 10.136611 C 28.857304 10.136611 30.136604 10.898331 30.712803 12.031111 z M 27.793007 18.1348 C 29.502007 18.1348 30.830107 16.6602 30.830107 14.9121 C 30.830107 13.164 29.511707 11.6894 27.793007 11.6894 C 26.113306 11.6894 24.775406 13.0566 24.775406 14.9121 C 24.775406 16.748 26.132805 18.1348 27.793007 18.1348 z M 38.16408 20.18555 C 36.57228 20.18555 35.205082 19.4043 35.205082 17.539051 C 35.205082 15.517551 36.806683 14.853551 38.876984 14.492151 L 38.876984 14.492151 L 40.400383 14.228481 C 41.015614 14.111291 41.279293 13.818321 41.279293 13.339811 C 41.279293 12.011711 40.283203 11.542912 39.228493 11.542912 C 38.115192 11.542912 37.197193 12.040961 37.050793 13.310512 L 37.050793 13.310512 L 35.361294 12.968712 C 35.673794 11.064412 37.089794 10.156212 39.316395 10.156212 C 41.259796 10.156212 43.085896 10.927691 43.085896 13.525312 L 43.085896 13.525312 L 43.085896 17.441313 C 43.085896 18.437403 43.369095 18.681513 44.052696 18.681513 L 44.052696 18.681513 L 44.199177 18.681513 L 44.199177 19.999912 L 43.290977 19.999912 C 42.27538 19.999912 41.61128 19.599522 41.415977 18.701113 L 41.415977 18.701113 L 41.328087 18.701113 C 40.556606 19.765614 39.345688 20.185513 38.163986 20.185513 z M 38.59378 18.6914 C 40.23438 18.6914 41.41608 17.4414 41.41608 15.3906 L 41.41608 15.3906 L 38.88678 15.90818 C 37.68558 16.11326 37.03128 16.51365 37.03128 17.39258 C 37.03128 18.31055 37.72464 18.69138 38.59378 18.69138 z M 53.46675 10.332 L 55.27335 10.332 L 55.27335 19.4629 C 55.27335 22.8516 53.44715 24.589901 50.497948 24.589901 C 48.01745 24.589901 46.49405 23.4864 45.742046 21.621101 L 45.742046 21.621101 L 47.304546 20.878912 C 47.861187 22.314411 48.867046 23.056612 50.429546 23.056612 C 52.402245 23.056612 53.398346 21.748013 53.398346 19.580011 L 53.398346 19.580011 L 53.398346 17.89051 C 52.812405 18.96471 51.523346 19.716711 50.078045 19.716711 C 47.665943 19.716711 45.663944 17.74401 45.663944 14.912011 C 45.663944 12.080011 47.685444 10.136611 50.097546 10.136611 C 51.572147 10.136611 52.851444 10.898331 53.427647 12.031111 z M 50.50785 18.1348 C 52.21685 18.1348 53.544952 16.6602 53.544952 14.9121 C 53.544952 13.164 52.22655 11.6894 50.50785 11.6894 C 48.82815 11.6894 47.49025 13.0566 47.49025 14.9121 C 47.49025 16.748 48.84765 18.1348 50.50785 18.1348 z M 67.20712 14.9805 L 67.177826 15.47855 L 59.687626 15.47855 C 59.755985 17.61725 61.103626 18.65235 62.705227 18.65235 C 63.85753 18.65235 64.81463 18.02735 65.302925 16.982449 L 65.302925 16.982449 L 67.00213 17.314478 C 66.318535 19.111378 64.68763 20.185577 62.72483 20.185577 C 59.85373 20.185577 57.85183 18.330078 57.85183 15.166078 C 57.85183 12.002077 59.90263 10.136778 62.66633 10.136778 C 65.29333 10.136778 67.19763 11.718778 67.20733 14.980577 z M 62.675823 11.5625 C 61.181725 11.5625 60.058624 12.36328 59.765625 14.0527 L 59.765625 14.0527 L 65.32223 14.0527 C 65.16598 12.373 64.101524 11.5625 62.675728 11.5625 z M 79.921936 10.1367 C 81.777435 10.1367 83.07623 11.230499 83.07623 13.2519 L 83.07623 13.2519 L 83.07623 19.9999 L 81.20123 19.9999 L 81.20123 13.749901 C 81.20123 12.3241005 80.36139 11.6991005 79.39463 11.6991005 C 78.26183 11.6991005 77.38293 12.421761 77.38293 14.1112 L 77.38293 14.1112 L 77.38293 19.9999 L 75.47863 19.9999 L 75.47863 13.8183 C 75.47863 12.3535 74.64855 11.6992 73.64273 11.6992 C 72.53923 11.6992 71.63103 12.42186 71.63103 14.1797 L 71.63103 14.1797 L 71.63103 20 L 69.76582 20 L 69.76582 10.332 L 71.63103 10.332 L 71.63103 11.5625 C 72.2072 10.6543 73.14473 10.1367 74.30682 10.1367 C 75.56662 10.1367 76.58222 10.67381 77.070526 11.6992 C 77.675995 10.6737995 78.68182 10.1367 79.92213 10.1367 z M 91.03514 10.1367 C 93.07614 10.1367 94.42384 11.318299 94.42384 13.4862995 L 94.42384 13.4862995 L 94.42384 20 L 92.53905 20 L 92.53905 13.9062 C 92.53905 12.314401 91.591774 11.699201 90.49805 11.699201 C 89.20895 11.699201 88.15424 12.480451 88.14455 14.287101 L 88.14455 14.287101 L 88.14455 20 L 86.26955 20 L 86.26955 10.332 L 88.14455 10.332 L 88.14455 11.523399 C 88.76955 10.644489 89.78515 10.1367 91.03515 10.1367 z M 100.77147 20 C 99.14057 20 98.134766 19.02344 98.134766 17.304699 L 98.134766 17.304699 L 98.134766 11.806699 L 96.16206 11.806699 L 96.16206 10.332099 L 96.874954 10.332099 C 97.88085 10.332099 98.290955 9.912179 98.290955 8.789099 L 98.290955 8.789099 L 98.290955 7.119199 L 100.019455 7.119199 L 100.019455 10.332099 L 102.206955 10.332099 L 102.206955 11.806699 L 100.019455 11.806699 L 100.019455 17.109398 C 100.019455 18.037128 100.556564 18.525398 101.31825 18.525398 L 101.31825 18.525398 L 102.206924 18.525398 L 102.206924 19.999998 L 100.77142 19.999998 z" stroke-linecap="round"/>
</g>
</g>
</g>
</svg>